<?xml version="1.0" encoding="UTF-8" standalone="no"?><!DOCTYPE svg PUBLIC "-//W3C//DTD SVG 1.1//EN" "http://www.w3.org/Graphics/SVG/1.1/DTD/svg11.dtd"><svg width="100%" height="100%" viewBox="0 0 3049 2600" version="1.1" xmlns="http://www.w3.org/2000/svg" xmlns:xlink="http://www.w3.org/1999/xlink" xml:space="preserve" xmlns:serif="http://www.serif.com/" style="fill-rule:evenodd;clip-rule:evenodd;stroke-linejoin:round;stroke-miterlimit:2;"><rect id="Artboard1" x="0" y="0" width="3048.636" height="2599.544" style="fill:none;"/><g id="Background"><g><path d="M2098.828,934.612c-0.328,0.057 -5.008,1.469 -11.736,2.049c-16.532,1.425 -16.192,2.93 -32.435,5.897c-17.477,3.193 -14.112,-8.06 -14.407,-26.061c-0.939,-57.4 -6.163,-119.179 -7.044,-125.203c-6.517,-44.604 -2.236,-49.727 -17.052,-58.527c-29.005,-17.228 -104.913,-45.372 -114.232,-48.827c-18.598,-6.895 -18.682,-6.272 -37.309,-13.045c-24.306,-8.839 -24.479,-8.103 -48.875,-16.661c-23.452,-8.226 -29.596,-8.718 -44.462,-13.596c-39.03,-12.807 -39.306,-11.457 -91.56,-24.988c-12.175,-3.153 -146.207,-37.859 -152.492,-38.194c-6.45,-0.344 -78.513,18.684 -98.226,23.471c-54.568,13.25 -54.325,13.922 -108.449,28.811c-22.369,6.153 -22.117,6.712 -44.435,12.983c-50.364,14.151 -49.94,15.463 -54.319,16.682c-45.077,12.543 -147.341,53.086 -169.451,64.4c-20.468,10.474 -27.764,9.952 -30.83,29.481c-9.432,60.069 -11.549,115.049 -11.935,125.095c-4.471,116.136 3.586,147.462 2.477,163.499c-1.538,22.24 -48.506,79.199 -1.006,112.336c14.735,10.279 19.99,7.867 25.225,34.577c9.268,47.286 11.514,46.697 16.035,65.426c8.792,36.43 39.019,110.7 42.867,120.152c23.736,58.321 46.132,86.725 48.621,97.717c2.274,10.043 -23.837,38.847 -35.1,65.37c-0.401,0.945 -4.402,10.366 -10.195,7.8c-1.322,-0.586 -22.002,-35.911 -22.206,-36.214c-3.921,-5.833 -3.908,-5.754 -4.229,-6.266c-1.107,-1.765 -29.661,-55.92 -33.603,-64.358c-20.952,-44.849 -19.596,-45.364 -21.537,-49.197c-4.643,-9.166 -4.548,-11.148 -15.375,-38.358c-7.432,-18.678 -10.405,-31.298 -14.444,-42.112c-7.159,-19.163 -10.043,-36.689 -16.07,-54.549c-2.916,-8.641 -16.449,-68.141 -19.975,-92.933c-7.183,-50.512 -21.038,-101.245 -20.874,-228.424c0.177,-136.708 18.473,-239.691 18.533,-239.925c2.26,-8.869 15.744,-15.388 17.461,-16.218c78.777,-38.085 79.656,-36.028 86.434,-39.468c11.707,-5.943 20.588,-7.876 33.993,-13.391c42.496,-17.484 72.695,-27.052 80.504,-29.994c61.444,-23.146 256.49,-73.496 283.775,-79.337c25.817,-5.527 56.788,-17.015 70.566,-17.517c13.209,-0.482 248.477,60.475 266.417,66.617c22.072,7.556 22.423,6.139 44.529,13.338c85.962,27.995 129.068,43.65 206.462,77.693c9.478,4.169 29.938,14.886 32.787,16.114c11.637,5.015 24.947,12.753 27.186,16.862c2.75,5.046 3.937,7.224 11.272,70.944c3.059,26.577 8.809,112.036 9.888,157.932c0.383,16.292 -5.311,14.379 -21.166,18.118Z" style="fill:#8264d2;"/><path d="M1569.44,1888.891c-38.415,18.986 -39.825,24.966 -59.813,14.834c-8.013,-4.062 -60.572,-30.705 -97.795,-55.202c-9.443,-6.214 -59.276,-37.697 -75.049,-50.731c-5.326,-4.401 -22.164,-17.284 -24.105,-18.769c-17.01,-13.014 -16.571,-13.37 -32.884,-27.244c-0.674,-0.573 -1.057,-0.075 -17.927,-15.339c-21.354,-19.322 -75.381,-73.967 -77.698,-79.807c-4.121,-10.387 5.372,-15.293 26.244,-33.607c3.828,-3.359 21.942,-18.51 31.981,-27.794c10.818,-10.005 74.485,-64.527 87.436,-76.031c8.033,-7.136 77.702,-67.079 84.468,-72.901c16.149,-13.895 16.258,-13.627 31.914,-28.031c4.883,-4.492 71.709,-62.364 76.054,-65.223c9.24,-6.08 22.461,-3.815 37.462,-2.624c1.559,0.124 17.091,1.357 19.164,3.873c4.268,5.179 -4.644,15.345 -18.919,52.164c-8.961,23.111 -12.037,21.313 -37.749,44.236c-3.666,3.268 -3.821,3.038 -46.307,40.298c-3.268,2.866 -3.484,2.526 -41.278,35.33c-43.725,37.952 -43.648,37.88 -87.138,76.144c-47.314,41.629 -58.218,46.866 -57.57,53.844c0.386,4.159 10.978,13.882 46.17,44.32c17.062,14.758 70.359,54.724 87.586,64.657c4.916,2.835 4.371,3.717 60.733,36.649c12.558,7.338 12.846,6.597 25.424,14.041c19.805,11.721 28.16,0.986 50.594,-10.671c6.773,-3.519 35.065,-18.219 81.22,-50.058c18.927,-13.057 84.732,-56.96 159.312,-140.409c87.734,-98.168 143.333,-208.579 167.129,-273.71c8.008,-21.917 8.457,-21.625 15.582,-43.786c1.615,-5.024 5.328,-12.758 11.755,-37.861c5.136,-20.062 7.956,-30.022 11.17,-31.359c5.611,-2.335 5.48,0.124 9.796,4.428c17.609,17.562 36.162,39.064 39.186,42.569c15.627,18.111 10.52,20.914 2.936,43.526c-17.582,52.419 -27.909,86.851 -75.316,174.295c-21.334,39.351 -66.563,110 -125.635,173.393c-89.064,95.579 -161.805,150.251 -288.133,222.556Z" style="fill:#5940ad;"/><path d="M903.195,786.092c-2.77,37.502 -3.94,37.85 -4.972,54.373c-0.136,2.18 -1.666,51.747 -2.588,65.141c-2.285,33.184 -37.326,100.868 -34.584,244.907c2.191,115.089 34.251,198.411 44.827,228.83c14.548,41.841 66.376,152.296 160.03,243.041c48.584,47.075 63.009,54.635 73.616,62.843c25.417,19.669 64.455,43.541 65.114,44.003c10.995,7.7 72.599,68.571 124.791,103.939c27.883,18.894 38.611,31.799 82.816,52.577c0.741,0.348 8.985,4.224 4.571,9.153c-4.639,5.18 -42.975,-9.041 -64.467,-13.297c-17.78,-3.521 -29.185,-7.771 -48.135,-13.97c-7.051,-2.306 -39.826,-13.028 -86.276,-33.993c-3.226,-1.456 -51.464,-25.847 -60.182,-31.502c-25.171,-16.328 -86.388,-49.906 -161.383,-126.54c-61.749,-63.099 -93.443,-115.222 -107.577,-137.859c-63.34,-101.442 -81.989,-184.645 -92.387,-218.108c-2.823,-9.083 -11.665,-55.425 -13.696,-71.353c-6.275,-49.212 -11.635,-80.537 -5.594,-184.742c2.018,-34.809 15.112,-103.84 19.402,-120.143c34.685,-131.837 70.395,-177.934 100.986,-232.373c7.604,-13.532 11.244,-10.718 12.242,-9.946c2.623,2.028 0.92,12.858 0.747,13.963c-3.512,22.333 -5.217,50.6 -7.302,71.057Z" style="fill:#6148b6;"/><path d="M2137.671,704.602l3.796,-1.688c1.498,0.301 2.673,-2.202 4.171,-1.901c0.118,0.024 20.486,33.694 22.261,36.628c28.39,46.931 54.205,104.695 59.242,119.6c25.604,75.769 31.357,109.647 33.016,119.419c3.221,18.968 22.563,90.487 12.27,222.836c-1.248,16.044 1.09,16.336 -14.446,98.32c-4.006,21.141 -7.381,28.929 -15.428,60.065c-5.36,20.741 -29.05,82.296 -36.807,96.683c-8.508,15.779 -6.365,18.096 -34.708,67.084c-46.943,81.138 -97.361,131.622 -115.779,151.721c-10.933,11.931 -73.448,74.707 -154.098,122.545c-32.562,19.315 -64.19,38.049 -135.67,65.148c-15.518,5.883 -44.853,14.997 -48.78,16.217c-5.825,1.81 -12.17,1.884 -58.934,14.525c-8.343,2.255 -29.029,9.96 -27.246,-1.003c0.87,-5.349 6.515,1.114 57.81,-35.299c58.29,-41.379 58.781,-40.675 112.957,-87.463c7.413,-6.402 7.735,-5.86 14.839,-12.603c34.297,-32.559 36.322,-29.968 52.669,-40.543c3.989,-2.58 44.901,-31.085 59.849,-43.16c179.69,-145.151 225.595,-321.794 231.982,-340.769c9.116,-27.08 6.945,-27.561 14.289,-55.188c4.012,-15.094 15.639,-89.153 13.893,-157.839c-0.189,-7.444 -0.813,-31.981 -7.594,-92.772c-0.743,-6.657 -13.173,-67.712 -17.615,-81.42c-11.126,-34.338 -9.46,-34.742 -11.217,-70.786c-1.561,-32.007 -0.915,-32.531 -2.739,-49.153c-1.827,-16.644 -3.507,-34.755 -3.788,-37.78c-3.334,-50.357 -6.231,-57.513 -8.195,-81.426Z" style="fill:#664bba;"/><path d="M1364.46,1666.664c-5.384,-4.64 -5.357,-4.601 -5.814,-5.011c-16.151,-14.499 -4.552,-18.144 16.755,-36.556c21.392,-18.485 116.16,-98.523 125.664,-108.539c0.811,-0.855 9.854,-10.384 10.326,-10.508c2.911,-0.763 7.846,3.555 7.829,3.909c-0.007,0.161 -2.142,6.588 -3.755,10.482c-13.193,31.84 -9.855,32.936 -21.607,65.326c-0.771,2.126 -22.048,79.218 -22.444,81.854c-1.347,8.977 5.446,8.707 6.303,8.673c4.601,-0.182 81.409,-70.175 87.094,-74.294c5.741,-4.16 5.62,-4.327 131.426,-118.808c46.327,-42.156 167.181,-152.757 167.943,-153.314c7.3,-5.34 47.716,-43.106 57.031,-52.033c8.122,-7.784 7.618,-8.132 15.529,-16.138c4.973,-5.033 5.869,-9.168 10.471,-3.878c4.557,5.239 0.979,5.828 -1.645,12.312c-24.813,61.319 -30.814,84.231 -41.36,104.435c-16.29,31.207 -52.55,126.598 -171.542,248.374c-54.487,55.762 -140.423,113.375 -158.29,123.685c-45.818,26.441 -46.383,26.832 -53.153,25.386c-13.087,-2.794 -113.354,-66.262 -156.76,-105.358Z" style="fill:#b29df5;"/><path d="M1479.52,1172.927c0.628,1.341 -1.038,3.082 -0.411,4.424c0.952,2.035 8.18,2.312 8.917,2.34c22.334,0.856 22.26,0.499 44.584,1.763c51.911,2.939 79.897,16.644 114.31,28.336c14.771,5.019 39.323,18.327 43.994,21.478c15.914,10.731 29.134,14.09 44.252,38.232c23.417,37.393 10.169,67.586 5.493,82.835c-4.797,12.075 -5.506,16.006 -11.736,27.096c-0.77,1.37 -6.074,10.811 -10.146,16.817c-32.14,47.4 -71.62,82.228 -128.099,139.145c-29.839,30.07 -32.261,27.604 -59.947,59.715c-12.829,14.88 -14.671,2.851 -14.396,1.724c0.374,-1.536 8.139,-16.035 10.426,-21.837c1.213,-3.079 9.662,-24.513 14.658,-38.679c2.426,-6.88 26.892,-76.257 30.078,-86.085c24.44,-75.41 31.923,-82.772 55.92,-107.938c2.591,-2.717 3.138,-2.831 2.196,-6.414c-2.804,-10.668 -58.185,-8.709 -135.162,-17.98c-65.265,-7.861 -89.97,-12.163 -125.724,-47.325c8.303,-9.865 9.204,-9.684 9.752,-16.59c0.547,-6.909 0.396,-6.87 1.045,-10.995c4.302,-27.353 13.459,-32.908 15.236,-34.609c20.185,-19.313 28.995,-22.904 45.404,-29.21c29.486,-11.332 29.485,-12.103 32.057,-11.226c2.788,0.951 4.511,4.032 7.299,4.983Z" style="fill:#8469d1;"/><path d="M1870.978,811.715c11.609,3.68 11.205,4.449 21.691,10.484c6.4,3.684 6.744,2.616 15.32,4.556c-0.72,3.176 -3.064,5.832 -3.784,9.008c-0.183,0.806 0.92,0.672 1.614,10.203c0.351,4.827 -0.976,9.727 -2.649,22.731c-8.365,9.988 -8.433,9.928 -9.096,11.06c-13.279,22.688 -10.886,23.681 -11.14,24.651c-9.837,18.161 -10.069,17.963 -12.209,23.352c-3.328,8.381 -14.536,33.044 -16.362,38.068c-16.886,46.472 -26.445,58.752 -30.917,66.412c-6.169,10.567 -6.691,10.096 -13.167,20.528c-4.458,7.182 -25.771,32.021 -33.047,37.814c-18.525,14.747 -19.721,19.177 -38.827,13.257c-74.614,-23.12 -96.866,-43.388 -107.236,-52.347c-13.932,-12.037 -19.451,0.772 -30.631,15.127c-3.997,5.133 -25.551,27.854 -30.446,34.619c-23.544,32.543 -21.951,44.59 -24.436,55.385c-3.468,15.067 -12.114,9.102 -35.096,9.704c-26.861,0.704 -29.992,6.119 -31.04,6.598c-2.788,-0.951 -4.511,-4.032 -7.299,-4.983c-2.572,-0.877 -2.571,-0.106 -32.057,11.226c-16.409,6.306 -25.218,9.897 -45.404,29.21c-1.777,1.701 -10.934,7.256 -15.236,34.609c-0.649,4.125 -0.497,4.085 -1.045,10.995c-0.547,6.906 -1.449,6.726 -9.752,16.59c-45.134,-50.17 -20.214,-103.634 -6.073,-120.904c41.349,-50.498 110.776,-63.128 162.916,-109.551c80.419,-71.599 68.847,-149.827 72.662,-155.921c3.499,-5.589 4.98,-4.387 10.776,-1.333c7.607,4.008 7.481,4.096 15.438,7.521c34.183,14.713 39.162,33.216 49.226,53.44c11.231,22.569 38.552,9.17 55.729,48.361c4.945,11.284 5.497,20.589 5.906,21.374c0.364,0.699 7.733,1.512 9.148,0.672c0.431,-0.256 5.124,-9.848 5.548,-10.715c6.48,-13.244 51.026,-58.456 51.738,-59.816c0.879,-1.68 0.779,-3.762 1.659,-5.443l1.112,-5.573c5.667,-1.318 11.334,-2.637 17,-3.955c6.875,-3.923 0.808,-3.958 13.69,-18.352c11.48,-0.519 7.104,3.07 7.981,2.611c3.446,-1.804 -5.92,-14.027 -5.566,-14.788c2.689,-5.774 2.748,-8.673 4.795,-14.769c9.495,-28.273 9.827,-50.144 7.735,-61.947c-1.864,-10.516 17.232,-2.062 17.265,-2.966c0.093,-2.559 3.473,-4.245 3.566,-6.804Z" style="fill:#a289e6;"/><path d="M1769.077,1347.234c0.248,-0.749 3.573,-7.904 4.613,-16.855c1.361,-11.711 1.251,-15.275 1.21,-16.607c-0.531,-17.216 0.068,-17.355 -5.776,-33.5c-11.75,-32.462 -19.048,-32.785 -12.701,-41.925c4.547,-6.549 141.069,-133.866 153.146,-146.364c10.735,-11.108 2.334,-14.734 -24.982,-43.4c-11.332,-11.892 -18.412,-17.747 -14.985,-23.409c1.381,-2.283 10.4,-4.016 11.35,-4.199c16.652,-3.201 32.429,-8.238 48.794,-11.739c26.182,-5.601 26.062,-5.766 54.161,-12.23c80.46,-18.51 80.323,-18.921 87.39,-20.164c32.033,-5.634 48.145,-14.695 50.12,-6.52c1.037,4.293 -0.119,4.266 -4.268,17.612c-2.234,7.187 -5.254,23.503 -11.34,43.485c-7.305,23.983 -5.397,24.429 -12.733,48.379c-9.511,31.048 -9.445,40.228 -15.459,60.16c-15.147,50.194 -13.838,52.418 -20.128,71.756c-2.657,8.169 -5.769,8.43 -12.231,2.721c-3.703,-3.272 -24.887,-24.996 -27.028,-27.192c-21.024,-21.56 -24.059,-28.521 -36.047,-17.09c-41.871,39.926 -149.027,136.191 -194.945,180.73c-10.488,10.173 -10.017,10.46 -15.756,16.726c-4.912,5.363 -7.652,7.325 -10.502,0.623c-0.476,-1.119 -0.134,-1.195 8.099,-20.998Z" style="fill:#b299f1;"/><path d="M1326.693,852.605c10.97,-12.607 44.863,-44.423 85.943,-44.236c24.979,0.114 62.94,12.327 87.268,37.136c1.802,1.837 3.52,3.755 5.308,5.606c0.809,0.837 9.205,9.527 11.073,9.439c2.574,-0.122 10.608,-5.116 -13.616,-29.193c-8.267,-8.217 -17.483,-13.281 -17.988,-13.852c-1.169,-1.322 -1.696,-3.096 -2.6,-4.612c-0.616,-1.033 -2.324,-1.884 -1.958,-3.029c1.707,-5.339 18.015,3.958 40.11,-19.711c22.958,-24.593 17.497,-54.552 19.35,-63.827c4.025,-20.154 9.636,-31.818 24.253,-45.224c8.841,-8.109 36.937,-25.693 71.73,-14.263c111.33,36.576 32.107,178.353 6.041,190.47c-27.125,12.61 -38.238,-25.593 -50.57,-1.363c-20.717,40.707 -2.436,47.031 -29.071,99.725c-9.054,17.913 -8.96,17.957 -21.814,33.411c-5.029,-2.24 -2.811,-5.032 -7.773,-7.243c-0.301,-0.134 -0.453,-0.202 -3.463,2.238c-2.052,1.663 -3.245,5.01 -5.867,5.324c-2.644,0.317 -4.396,-3.457 -7.039,-3.776c0,0 -15.188,2.116 -16.509,2.3c-1.779,-0.298 -3.623,-0.015 -5.402,-0.313c-5.775,-0.968 -25.437,-4.265 -48.078,-55.199c-18.47,-41.55 -35.39,-41.749 -87.853,-49.091c-15.699,-1.56 -17.719,-1.47 -22.059,-1.194c-10.122,0.644 -10.289,-0.517 -10.974,0.032c-1.481,1.187 0.57,4.381 -0.859,5.63c-1.09,0.953 -3.071,-2.196 -4.161,-1.243l-5.443,-2.752l-6.717,-7.398c1.844,-2.202 12.22,-16.058 18.737,-23.792Z" style="fill:#9b78e5;"/><path d="M1313.991,842.736c-0.157,1.032 0.749,2.043 0.592,3.076c-0.731,4.8 -14.4,21.513 -15.11,26.857c-0.076,0.569 -0.775,5.831 4.316,5.737c1.542,-0.028 2.625,-1.982 4.167,-2.01l6.717,7.398l5.443,2.752c1.09,-0.953 3.071,2.196 4.161,1.243c1.43,-1.249 -0.622,-4.443 0.859,-5.63c0.685,-0.549 0.852,0.612 10.974,-0.032c4.34,-0.276 6.36,-0.366 22.059,1.194c52.463,7.343 69.384,7.541 87.853,49.091c22.641,50.934 42.303,54.231 48.078,55.199c1.779,0.298 3.623,0.015 5.402,0.313c1.059,1.938 0.386,2.133 1.475,4.127c2.338,4.281 7.575,3.056 4.476,6.767c-2.285,2.737 -7.117,0.465 -10.677,0.66c-5.428,0.297 -14.222,0.578 -27.547,-2.213c-29.809,-6.243 -32.714,-16.328 -38.288,-16.574c-8.197,-0.362 -5.394,3.758 -5.233,12.004c0.397,20.287 -5.936,47.051 -6.283,54.529c-0.312,6.712 -0.354,8.599 6.409,8.878c1.959,0.081 3.289,-2.186 5.112,-2.906c1.711,-0.676 3.64,-0.639 5.38,-1.238c13.223,-4.556 13.4,-5.979 16.414,-4.244c2.829,1.629 3.981,5.411 6.81,7.04c-31.986,19.406 -49.82,26.189 -68.518,44.086c-7.415,7.097 -10.829,12.227 -14.95,2.763c-1.617,-3.715 6.168,-6.307 11.61,-27.217c7.743,-29.751 7.884,-40.527 -2.297,-81.188c-7.537,-30.1 -17.556,-36.849 8.427,-53.912c0.791,-0.519 9.797,-6.434 9.863,-6.533c0.57,-0.861 7.734,-15.832 -11.187,-6.435c-58.312,28.961 -73.681,20.519 -103.063,22.425c-15.931,1.033 -9.865,17.972 -44.69,64.846c-33.393,44.948 -38.611,59.418 -27.928,78.095c11.086,19.382 8.513,36.517 18.268,36.668c7.48,0.116 5.334,-3.605 18.067,-31.419c6.747,-14.738 11.819,-32.141 31.767,-24.555c13.557,5.156 11.917,16.838 11.673,18.576c-2.185,15.572 -15.519,28.72 -50.951,130.218c-11.011,31.541 -41.314,12.156 -38.578,-5.493c0.639,-4.124 14.469,-40.422 15.798,-43.911c4.33,-11.365 -0.695,-20.908 -20.716,-10.746c-15.99,8.116 -17.675,7.872 -38.615,-3.634c-11.036,-6.063 -24.086,-9.959 -27.977,-22.767c-2.83,-9.315 -1.051,-11.177 -9.858,-15.457c-10.209,-4.961 -14.491,3.463 -15.062,4.586c-12.323,24.24 -14.737,56.998 -39.293,49.792c-24.13,-7.081 -11.947,-31.449 -10.673,-33.999c7.725,-15.451 6.933,-15.695 13.418,-31.622c1.267,-3.111 6.054,-12.12 9.674,-22.241c4.972,-13.9 13.546,-32.415 16.724,-43.311c3.092,-10.598 10.457,-28.649 15.124,-32.986c7.131,-6.627 36.597,-3.915 30.367,20.867c-5.124,20.381 -18.943,42.97 -17.164,48.651c0.716,2.286 13.035,19.537 25.783,-3.913c14.965,-27.527 10.194,-29.244 24.443,-82.709c1.523,-5.714 3.896,-22.723 19.008,-58.955c22.446,-53.817 44.449,-57.525 52.214,-62.19c16.631,-9.991 16.924,-9.28 55.378,-25.988c5.401,-2.347 5.336,-2.332 5.829,-2.446c2.282,-0.532 2.259,0.561 4.524,0.033Z" style="fill:#553e9a;"/><path d="M1064.513,595.918c-30.104,11.968 -31.255,12.559 -33.859,13.897c-2.791,1.434 -46.959,18.795 -59.576,27.725c-1.591,1.126 -16.072,12.516 -19.896,6.244c-0.805,-1.321 -1.008,-3.2 -0.401,-4.622c0.965,-2.261 3.081,-3.839 4.774,-5.621c3.883,-4.085 4.35,-3.45 8.342,-7.342c16.283,-15.875 14.207,-17.69 45.222,-47.966c34.199,-33.384 64.353,-56.297 70.272,-60.794c44.704,-33.969 97.069,-62.025 105.896,-66.754c45.532,-24.395 121.51,-52.824 178.831,-65.378c3.207,-0.702 61.902,-10.655 65.112,-10.983c10.102,-1.032 44.425,-5.007 54.289,-5.478c90.814,-4.333 142.186,6.41 168.313,10.706c68.057,11.191 74.141,16.498 124.923,32.599c17.326,5.493 16.572,7.238 33.604,13.425c19.535,7.097 18.775,8.677 37.937,16.854c0.135,0.058 29.974,15.319 38.742,20.97c7.214,4.649 23.015,13.134 24.913,14.372c44.589,29.084 90.465,58.244 155.019,127.317c29.328,31.381 31.434,30.033 31.948,33.713c0.099,0.708 0.962,6.886 -5.939,6.669c-2.182,-0.069 -25.782,-17.775 -93.058,-42.864c-0.176,-2.46 1.696,-4.78 1.52,-7.24c-0.224,-3.126 -14.968,-11.188 -16.393,-11.967c-21.751,-11.894 -53.254,-40.241 -72.145,-52.52c-10.274,-6.678 -76.605,-49.796 -135.901,-70.65c-34.382,-12.092 -34.322,-12.208 -37.348,-13.146c-62.624,-19.416 -83.876,-21.393 -130.643,-28.403c-73.588,-11.031 -155.947,-2.855 -180.234,1.629c-35.219,6.502 -35.573,4.198 -70.149,13.232c-126.132,32.953 -172.665,68.295 -212.142,92.043c-35.03,21.073 -39.286,30.02 -59.169,44.103c-14.876,10.536 -15.754,9.081 -16.931,10.133c-0.865,0.773 -0.636,2.519 -1.663,3.056c-1.573,0.822 -3.563,0.186 -5.294,0.581c-6.556,1.495 -6.43,5.739 -6.409,6.467c0.082,2.766 0.441,6.155 2.603,7.884c1.366,1.092 3.527,-2.983 4.892,-1.891Z" style="fill:#9373e1;"/><path d="M1133,1557.601c4.193,-8.456 36.512,-73.632 67.358,-96.866c38.391,-28.917 52.35,-29.692 74.757,-55.52c9.883,-11.392 13.571,-14.71 46.107,-96.431c6.386,-16.039 10.796,-35.138 12.225,-36.134c0.879,-0.613 2.141,0.174 3.212,0.149c2.875,-0.066 3.488,-0.731 5.462,2.668c10.589,18.232 33.271,34.005 43.286,38.388c25.805,11.291 25.532,12.072 54.041,18.181c19.535,4.186 19.585,4.229 20.904,5.343c7.145,6.037 -8.361,20.86 -15.093,30.824c-1.481,2.192 -33.418,41.715 -50.714,58.003c-29.351,27.641 -32.02,24.374 -117.096,95.468c-13.425,11.219 -13.511,10.997 -26.786,22.292c-78.2,66.535 -76.717,68.173 -83.557,73.904c-9.864,8.266 -11.959,4.4 -20.247,-5.458c-21.027,-25.009 -21.562,-28.933 -21.983,-32.011c-1.104,-8.084 7.662,-21.872 8.125,-22.8Z" style="fill:#684db5;"/><path d="M1064.513,595.918c-1.366,-1.092 -3.527,2.983 -4.892,1.891c-2.161,-1.728 -2.521,-5.117 -2.603,-7.884c-0.022,-0.728 -0.147,-4.972 6.409,-6.467c1.731,-0.395 3.721,0.242 5.294,-0.581c1.028,-0.537 0.799,-2.283 1.663,-3.056c1.177,-1.052 2.055,0.403 16.931,-10.133c19.883,-14.083 24.139,-23.03 59.169,-44.103c39.477,-23.748 86.01,-59.09 212.142,-92.043c34.576,-9.033 34.93,-6.73 70.149,-13.232c24.287,-4.484 106.647,-12.66 180.234,-1.629c46.768,7.011 68.02,8.987 130.643,28.403c3.025,0.938 2.966,1.054 37.348,13.146c59.295,20.854 125.627,63.972 135.901,70.65c18.891,12.279 50.394,40.627 72.145,52.52c1.425,0.779 16.169,8.841 16.393,11.967c0.176,2.46 -1.696,4.78 -1.52,7.24c-39.739,-15.856 -38.634,-18.385 -65.317,-27.386c-22.065,-7.443 -21.542,-8.593 -43.797,-15.406c-38.181,-11.689 -58.743,-29.546 -92.514,-44.214c-63.618,-27.631 -142.239,-55.676 -244.074,-58.262c-110.054,-2.795 -132.193,8.225 -158.082,11.513c-33.085,4.202 -90.421,24.992 -98.088,27.772c-6.793,2.463 -52.425,19.01 -82.329,37.136c-50.404,30.552 -54.669,21.74 -151.207,62.157Z" style="fill:#4e36a2;"/><path d="M1993.007,2103.382c1.977,18.909 8.68,70.348 -41.966,107.877c-30.942,22.928 -99.469,34.846 -146.857,-9.945c-6.264,-5.921 -40.991,-38.746 -28.077,-104.02c3.054,-15.434 30.059,-85.262 121.098,-77.727c44.504,3.683 76.86,32.401 87.994,61.176c4.342,11.222 4.392,11.123 7.809,22.639Zm-50.869,21.363c-0.239,-3.554 -1.936,-28.756 -13.734,-42.359c-13.959,-16.095 -29.826,-18.911 -36.599,-19.52c-57.263,-5.15 -76.589,50.144 -64.071,83.142c22.3,58.783 90.95,44.899 106.952,11.17c8.541,-18.003 7.24,-28.044 7.451,-32.433Z" style="fill:#5c42a6;"/><path d="M1485.531,2115.994c-2.602,5.57 -18.204,38.973 -36.368,67.694c-4.94,7.811 -10.915,27.943 -31.145,23c-12.283,-3.002 -18.609,-22.175 -36.475,-50.282c-15.286,-24.05 -19.617,-40.406 -23.328,-40.446c-4.846,-0.052 -3.739,13.167 -3.64,14.347c3.281,39.205 1.262,91.501 1.215,91.681c-1.908,7.293 -13.695,7.005 -35.676,6.334c-15.961,-0.487 -13.859,-7.385 -13.878,-32.825c-0.01,-13.092 -0.116,-157.98 0.846,-163.644c1.603,-9.442 7.888,-9.308 13.069,-9.449c27.066,-0.738 32.601,-0.144 38.032,9.857c20.53,37.807 22.687,36.485 48.263,82.076c4.184,7.458 4.209,7.34 8.238,14.828c1.775,3.298 1.688,3.209 3.285,6.58c1.599,3.374 1.858,3.581 5.566,3.679c6.784,0.18 4.987,-2.903 9.364,-10.107c3.78,-6.222 56.922,-98.59 61.542,-102.337c6.272,-5.087 14.015,-4.761 32.496,-4.657c18.409,0.104 14.563,7.823 14.629,26.259c0.162,45.215 -1.178,49.13 0.134,146.965c0.209,15.619 1.244,28.166 -4.53,31.499c-4.005,2.312 -37.191,2.572 -41.811,-0.462c-4.996,-3.28 -5.331,-4.484 -4.409,-74.583c0.234,-17.762 4.499,-38.01 -2.112,-38.131c-1.31,-0.024 -1.999,2.147 -3.309,2.124Z" style="fill:#5e43a7;"/><path d="M605.317,2116.505c-6.692,4.245 -6.826,4.026 -7.224,4.582c-2.455,3.428 -0.287,4.604 -25.042,46.378c-20.945,35.344 -20.152,38.269 -31.207,39.342c-21.387,2.076 -20.917,-12.419 -46.713,-51.036c-9.424,-14.108 -20.131,-39.279 -24.077,-39.084c-1.686,0.083 -2.221,2.629 -2.817,4.208c-0.904,2.395 -0.396,2.447 0.602,14.467c1.13,13.608 1.051,78.803 0.818,81.811c-0.993,12.835 -11.039,11.511 -36.695,10.709c-1.013,-0.032 -9.989,-0.312 -11.79,-4.62c-1.156,-2.765 -1.175,-15.497 -1.177,-16.848c-0.02,-13.956 -0.247,-171.247 0.239,-174.449c1.495,-9.863 9.273,-10.064 34.471,-9.439c14.952,0.371 13.544,4.846 30.905,32.523c2.186,3.485 20.48,32.65 26.808,43.884c16.447,29.197 16.83,28.944 18.092,31.567c0.465,0.966 5.002,10.405 10.269,8.611c2.312,-0.787 1.43,-1.754 16.256,-25.924c38.483,-62.735 45.262,-81.774 54.478,-88.255c4.645,-3.266 35.483,-4.143 40.488,0.346c4.564,4.094 4.207,11.234 3.879,66.831c-0.337,57.188 0.712,57.113 0.662,114.305c-0.015,16.88 0.129,22.044 -16.764,21.791c-12.944,-0.194 -24.044,-0.148 -26.905,-0.967c-7.423,-2.124 -6.491,-5.003 -6.474,-64.418c0.008,-28.087 1.283,-34.042 1.316,-38.244c0.045,-5.733 -2.146,-7.228 -2.397,-8.072Z" style="fill:#ae9fef;"/><path d="M2047.897,2216.581c-9.01,15.999 -12.795,11.912 -31.112,12.02c-16.141,0.095 -16.142,0.122 -16.444,0.065c-7.709,-1.457 -7.388,-3.792 -5.244,-11.346c0.905,-3.189 1.875,-2.751 16.028,-38.205c9.419,-23.597 21.589,-49.397 23.589,-53.636c4.894,-10.376 19.709,-45.254 21.387,-49.204c21.423,-50.436 21.731,-52.667 31.548,-53.836c0.547,-0.065 34.531,-0.424 37.813,0.092c9.598,1.511 8.372,4.329 26.484,42.773c2.996,6.359 2.693,6.434 34.815,80.675c1.701,3.933 16.641,38.461 22.032,48.819c2.961,5.688 11.221,25.942 10.991,28.235c-0.072,0.721 -0.523,5.227 -6.933,5.834c-1.852,0.175 -25.16,-0.059 -27.348,-0.081c-21.975,-0.221 -19.518,-12.11 -29.185,-32.362c-6.301,-13.199 -13.731,-10.109 -57.892,-10.22c-25.21,-0.063 -31.246,-1.121 -38.612,3.342c-3.199,1.938 -1.848,2.987 -11.917,27.035Zm68.674,-114.34c-2.927,-8.38 -2.474,-8.469 -5.648,-16.696c-2.275,-5.897 -2.167,-9.116 -7.801,-6.202c-6.553,3.388 -3.708,5.386 -5.326,12.524c-3.084,13.6 -6.707,16.775 -14.921,38.629c-7.312,19.453 8.907,15.175 15.539,15.126c28.453,-0.21 28.869,0.685 31.113,-1.224c2.858,-2.432 2.293,-7.712 -12.955,-42.156Z" style="fill:#5e43a6;"/><path d="M2512.08,2098.903c56.583,-0.047 59.842,0.755 63.24,-3.1c4.957,-5.623 1.539,-52.676 2.779,-63.482c0.096,-0.835 0.831,-7.238 5.493,-8.95c2.394,-0.879 3.766,-1.383 31.864,-0.772c6.368,0.139 7.065,-0.882 11.274,3.95c2.443,2.805 1.935,21.261 1.94,38.347c0.049,155.95 -0.118,156.024 -1.108,158.477c-2.544,6.306 -18.315,4.933 -33.853,4.756c-19.231,-0.218 -15.869,-7.889 -15.814,-27.169c0.14,-48.574 1.532,-53.946 -6.648,-57.314c-1.18,-0.486 -14.359,-0.436 -15.608,-0.432c-49.993,0.188 -49.995,-0.482 -54.298,0.113c-0.762,0.105 -6.608,0.913 -8.436,4.608c-2.994,6.05 0.873,67.563 -1.919,75.117c-1.086,2.939 -2.775,7.508 -38.801,5.307c-2.975,-0.182 -10.516,-1.205 -11.035,-11.053c-0.393,-7.455 -0.092,-65.109 -0.062,-70.77c0.595,-113.656 -3.406,-115.869 4.075,-121.941c2.129,-1.728 3.642,-2.956 34.211,-2.161c6.274,0.163 6.916,-0.545 10.865,4.401c3.192,3.998 1.132,52.425 1.713,59.764c1.116,14.104 5.942,12.197 20.128,12.304Z" style="fill:#5b40a6;"/><path d="M880.8,2146.249c-1.099,-10.931 -6.316,-42.493 11.668,-74.642c9.383,-16.773 25.92,-28.925 28.637,-30.921c51.25,-37.66 113.986,-17.718 127.614,-9.775c10.697,6.235 32.876,15.458 21.897,29.175c-18.352,22.928 -25.04,20.625 -27.607,19.741c-6.592,-2.27 -34.843,-29.675 -77.397,-11.13c-41.412,18.047 -34.46,64.119 -32.326,72.494c13.174,51.705 70.596,49.363 88.286,38.984c8.265,-4.849 3.769,-35.54 4.831,-49.945c0.673,-9.135 9.598,-9.542 10.75,-9.594c29.689,-1.352 31.995,1.011 33.896,2.959c3.159,3.238 2.573,9.726 2.594,12.071c0.604,65.337 1.177,69.835 -9.391,76.093c-29.059,17.209 -46.474,19.125 -65.358,19.625c-20.223,0.536 -60.796,1.03 -93.166,-35.234c-20.629,-23.11 -23.512,-44.374 -24.928,-49.902Z" style="fill:#5c42a6;"/><path d="M2326.738,2062.747c-13.659,2.558 -29.123,4.2 -44.701,28.544c-25.499,39.847 6.286,106.292 66.807,93.653c26.605,-5.556 28.876,-25.968 43.074,-16.077c1.705,1.188 13.695,11.58 14.873,12.601c3.91,3.389 16.677,10.888 -5.162,28.407c-36.982,29.668 -93.088,23.832 -117.787,12.049c-33.892,-16.168 -43.245,-34.282 -50.933,-47.276c-11.575,-19.563 -17.835,-71.118 2.887,-103.484c2.516,-3.93 14.659,-27.871 48.188,-43.172c40.207,-18.348 103.877,-7.636 126.756,19.065c7.312,8.533 -2.946,16.71 -11.291,24.94c-11.514,11.354 -14.307,11.317 -27.527,1.913c-2.678,-1.905 -16.44,-11.694 -39.321,-11.871c-1.968,-0.015 -3.894,0.721 -5.862,0.706Z" style="fill:#5c42a5;"/><path d="M1684.87,2062.858c-0.315,0.007 -22.923,-1.783 -39.679,10.888c-44.725,33.823 -25.213,107.409 28.629,111.927c35.676,2.994 50.54,-17.878 54.013,-18.735c1.699,-0.419 7.647,-1.888 19.722,9.474c16.137,15.184 15.901,18.712 9.228,25.67c-29.565,30.826 -69.234,31.843 -99.5,28.099c-39.223,-4.852 -90.81,-42.915 -87.691,-110.898c1.679,-36.604 15.134,-51.593 16.956,-54.57c9.675,-15.798 43.901,-47.465 92.806,-45.796c28.39,0.968 40.11,1.999 65.665,18.207c15.977,10.133 19.086,14.991 6.203,28.81c-7.817,8.384 -15.636,19.08 -26.542,12.601c-12.69,-7.539 -10.895,-12.968 -39.809,-15.677Z" style="fill:#5c42a6;"/><path d="M739.927,2139.752c-11.143,-20.042 -44.584,-75.132 -52.957,-90.197c-9.835,-17.695 -11.945,-17.427 -10.588,-23.521c0.691,-3.103 1.623,-4.655 39.565,-3.667c15.718,0.409 15.768,11.328 26.024,26.967c14.143,21.568 13.588,21.804 26.417,44.08c3.016,5.237 1.723,7.55 7.75,7.677c7.058,0.15 5.883,-3.168 30.379,-42.854c19.658,-31.847 19.405,-35.194 34.669,-35.598c2.166,-0.057 23.321,-0.618 27.085,-0.462c13.522,0.56 4.214,13.307 3.521,14.255c-9.42,12.899 -11.319,18.477 -32.759,54.521c-1.903,3.2 -23.107,38.847 -23.829,39.975c-20.292,31.684 -11.546,38.012 -13.239,86.321c-0.045,1.273 0.31,10.092 -9.765,11.212c-0.044,0.005 -31.536,-0.062 -32.689,-0.2c-0.89,-0.106 -7.7,-0.921 -9.454,-6.013c-0.767,-2.228 -0.705,-14.569 -0.699,-15.837c0.248,-49.196 0.735,-50.076 -9.43,-66.659Z" style="fill:#b0a1ec;"/><path d="M1233.261,2032.399c1.444,-1.751 4.286,-9 16.165,-9.822c2.163,-0.15 2.153,0.012 27.106,-0.189c0.902,-0.007 9.177,-0.074 10.315,4.551c0.81,3.289 -5.817,14.034 -6.51,15.158c-28.152,45.65 -35.98,59.878 -42.694,71.307c-1.587,2.701 -19.422,33.059 -19.815,33.776c-10.799,19.687 0.348,71.939 -8.202,78.997c-2.255,1.861 -4.625,3.818 -36.479,2.256c-14.656,-0.719 -11.857,-12.564 -11.9,-38.354c-0.043,-25.326 3.788,-34.686 -13.811,-60.814c-3.882,-5.764 -23.834,-38.95 -26.978,-43.676c-2.15,-3.231 -6.378,-9.587 -24.498,-41.879c-6.965,-12.412 -11.684,-12.878 -6.744,-18.399c4.815,-5.381 5.899,-2.983 13.189,-2.864c16.292,0.267 31.666,-1.677 38.351,4.084c5.662,4.879 27.218,46.519 36.559,60.97c7.766,12.014 6.521,14.419 12.086,14.315c3.917,-0.074 3.972,-0.584 5.768,-4.06c1.76,-3.405 1.712,-3.334 3.635,-6.566c32.099,-53.959 31.514,-54.2 34.456,-58.789Z" style="fill:#5b41a4;"/><path d="M1776.986,778.585l5.76,7.964c0.921,0.256 11.516,3.196 11.516,3.196c0.915,0.386 0.302,1.303 10.253,7.005c5.405,3.097 10.739,9.805 11.339,10.494c12.514,14.38 25.406,54.106 9.165,87.332c-0.827,1.693 -8.065,16.499 -8.64,21.911c-0.3,2.828 0.626,5.037 0.796,5.443c1.573,3.751 2.745,3.002 4.337,6.8c-5.667,1.318 -11.334,2.637 -17,3.955c-2.545,0.322 -21.186,2.681 -32.028,-1.56c-41.71,-16.316 -50.659,-70.244 -44.422,-96.347c10.281,-43.029 29.218,-49.313 48.924,-56.193Z" style="fill:#352758;"/><path d="M1934.865,765.218l-5.166,6.795c-1.315,2.311 -6.09,0.654 -7.405,2.965c-2.576,4.525 31.043,8.1 39.168,60.246c4.785,30.711 -5.905,51.379 -14.135,65.624c-0.914,1.582 -1.011,4.122 -2.724,4.754c-1.443,0.532 -3.035,-3.449 -4.018,-2.267c-1.645,1.981 -1.474,5.324 -0.503,7.709c2.199,5.404 6.046,7.345 6.78,7.715c2.62,1.322 2.127,-3.221 4.805,-1.871c-10.798,3.706 -10.569,4.402 -21.882,5.763c-8.445,1.016 -15.184,0.134 -16.493,-0.038c-25.734,-3.371 -30.103,-17.88 -30.357,-18.207c0.255,-0.97 -2.138,-1.964 11.14,-24.651c0.663,-1.132 0.731,-1.072 9.096,-11.06c9.807,-5.37 9.751,-5.323 10.592,-5.799c6.143,-3.48 14.651,-13.908 6.048,-28.739c-3.072,-5.296 -4.258,-3.958 -11.821,-7.403c-8.576,-1.94 -8.92,-0.872 -15.32,-4.556c-10.486,-6.035 -10.082,-6.804 -21.691,-10.484c-0.868,-0.806 -8.391,-3.7 -4.699,-14.219c1.385,-3.947 5.309,-9.066 5.864,-9.791c21.275,-27.759 55.305,-22.972 62.722,-22.487Z" style="fill:#382a5d;"/><path d="M1499.503,987.927c1.321,-0.184 16.509,-2.3 16.509,-2.3c2.644,0.319 4.396,4.093 7.039,3.776c2.622,-0.315 3.815,-3.662 5.867,-5.324c3.01,-2.439 3.162,-2.372 3.463,-2.238c4.962,2.21 2.744,5.003 7.773,7.243c-9.697,10.706 -22.523,30.1 -71.931,59.988c-5.197,3.144 -5.15,2.997 -10.673,5.685c-2.829,-1.629 -3.981,-5.411 -6.81,-7.04c-3.013,-1.735 -3.191,-0.312 -16.414,4.244c-1.74,0.599 -3.668,0.562 -5.38,1.238c-1.823,0.72 -3.154,2.987 -5.112,2.906c-6.763,-0.279 -6.722,-2.167 -6.409,-8.878c0.348,-7.477 6.681,-34.242 6.283,-54.529c-0.161,-8.247 -2.964,-12.367 5.233,-12.004c5.574,0.246 8.48,10.332 38.288,16.574c13.325,2.791 22.119,2.51 27.547,2.213c3.56,-0.195 8.392,2.077 10.677,-0.66c3.099,-3.711 -2.138,-2.486 -4.476,-6.767c-1.09,-1.995 -0.417,-2.189 -1.475,-4.127Z" style="fill:#7355c9;"/><path d="M1776.986,778.585c0.043,-0.007 16.351,-4.465 33.524,-0.724c21.798,4.749 35.605,25.075 37.856,29.581c28.314,56.681 4.16,91.371 -2.222,102.328c-12.882,14.395 -17.758,15.037 -24.632,18.96c-1.592,-3.797 -2.764,-3.049 -4.337,-6.8c-0.17,-0.406 -1.096,-2.615 -0.796,-5.443c0.575,-5.411 7.812,-20.218 8.64,-21.911c16.241,-33.227 3.349,-72.953 -9.165,-87.332c-0.6,-0.69 -5.934,-7.397 -11.339,-10.494c-9.951,-5.702 -9.337,-6.619 -10.253,-7.005c0,0 -10.595,-2.94 -11.516,-3.196l-5.76,-7.964Z" style="fill:#685184;"/><path d="M1934.865,765.218c11.687,3.659 11.753,3.34 22.222,9.511c28.358,16.717 49.577,85.099 13.297,127.566c-7.802,9.132 -8.371,8.501 -18.718,14.594c-2.678,-1.351 -2.185,3.192 -4.805,1.871c-0.734,-0.37 -4.581,-2.311 -6.78,-7.715c-0.971,-2.385 -1.143,-5.728 0.503,-7.709c0.982,-1.183 2.575,2.799 4.018,2.267c1.714,-0.632 1.81,-3.173 2.724,-4.754c8.23,-14.245 18.92,-34.913 14.135,-65.624c-8.125,-52.146 -41.744,-55.722 -39.168,-60.246c1.315,-2.311 6.09,-0.654 7.405,-2.965l5.166,-6.795Z" style="fill:#685685;"/><path d="M1027.3,1096.531c19.9,-45.916 23.97,-64.837 31.716,-76.511c9.351,-14.093 32.066,-3.743 29.4,10.74c-2.622,14.246 -35.636,91.045 -36.08,91.841c-0.814,1.458 -7.453,13.35 -20.2,5.274c-14.509,-9.193 -8.075,-21.174 -4.836,-31.343Z" style="fill:#372952;"/><path d="M1294.476,1216.672c-0.335,0.423 -6.881,16.585 -23.443,10.291c-14.094,-5.356 -9.119,-19.674 -8.514,-21.416c2.681,-7.716 27.567,-70.639 32.859,-80.515c6.312,-11.779 12.386,-11.844 13.844,-11.86c4.614,-0.049 20.032,5.037 17.349,21.17c-1.546,9.292 -11.893,28.185 -27.35,70.895c-2.128,5.88 -2.361,5.689 -4.745,11.433Z" style="fill:#40325c;"/><path d="M1770.851,868.239c-0.449,-0.85 -1.335,-1.416 -1.785,-2.266c-11.929,-22.556 15.133,-44.205 28.983,-19.731c9.924,17.536 -10.086,39.054 -24.665,25.163c-0.979,-0.933 -1.555,-2.235 -2.534,-3.167Z" style="fill:#f9f8fc;"/><path d="M1907.989,826.755c7.563,3.446 8.749,2.108 11.821,7.403c8.603,14.831 0.094,25.259 -6.048,28.739c-0.841,0.476 -0.785,0.43 -10.592,5.799c1.673,-13.004 3,-17.903 2.649,-22.731c-0.693,-9.531 -1.796,-9.397 -1.614,-10.203c0.72,-3.176 3.064,-5.832 3.784,-9.008Z" style="fill:#a289e6;"/><path d="M1313.991,842.736c4.234,3.29 8.468,6.579 12.702,9.869c-6.517,7.734 -16.893,21.59 -18.737,23.792c-1.542,0.028 -2.625,1.982 -4.167,2.01c-5.091,0.093 -4.392,-5.168 -4.316,-5.737c0.71,-5.344 14.379,-22.058 15.11,-26.857c0.157,-1.032 -0.749,-2.043 -0.592,-3.076Z" style="fill:#dfccf1;"/><path d="M1393.738,1169.018c-5.21,-2.971 -6.197,-1.968 -8.937,-7.267c-0.941,-1.819 -1.042,-4.013 -2.07,-5.785c-0.623,-1.075 -2.821,-1.281 -2.746,-2.521c0.012,-0.2 9.329,-8.359 9.554,-8.364c7.748,-0.183 6.749,2.499 9.168,9.866c0.76,2.313 3.533,4.483 2.722,6.779c-1.176,3.331 -6.515,3.961 -7.691,7.292Z" style="fill:#856be4;"/><path d="M1788.867,1805.922c-2.153,0.798 -3.971,2.358 -6.124,3.156c-4.857,1.8 -5.148,1.466 -5.44,1.13c-2.467,-2.84 3.225,-3.679 0.723,-6.559l4.72,-1.565l6.121,3.838Z" style="fill:#5c40b4;"/><path d="M1561.506,1543.93c-0.588,0.698 -7.354,8.727 -7.354,8.727c-5.555,-0.014 -5.555,-4.248 -5.555,-4.837c-0,-1.079 0.733,-0.221 12.909,-3.889Z" style="fill:#614ab2;"/><path d="M1260.048,1804.128c3.016,-0.125 2.632,-1.424 5.641,-1.549c0.478,-0.02 4.748,-0.197 5.879,1.07c0.354,0.397 5.019,8.153 -5.41,3.871c-2.155,-0.885 -3.955,-2.507 -6.11,-3.392Z" style="fill:#5a41b1;"/><path d="M1838.285,943.428c-0.675,-3.231 -4.44,2.295 -5.108,-0.903c-0.097,-0.467 -0.486,-2.328 3.997,-4.419c1.176,-0.549 3.551,-0.497 3.817,0.773c0.361,1.727 -3.066,2.822 -2.706,4.549Z" style="fill:#bd9ef1;"/></g></g></svg>