<?xml version="1.0" encoding="UTF-8" standalone="no"?><!DOCTYPE svg PUBLIC "-//W3C//DTD SVG 1.1//EN" "http://www.w3.org/Graphics/SVG/1.1/DTD/svg11.dtd"><svg width="100%" height="100%" viewBox="0 0 3210 2737" version="1.1" xmlns="http://www.w3.org/2000/svg" xmlns:xlink="http://www.w3.org/1999/xlink" xml:space="preserve" xmlns:serif="http://www.serif.com/" style="fill-rule:evenodd;clip-rule:evenodd;stroke-linejoin:round;stroke-miterlimit:2;"><rect id="Artboard1" x="0" y="0" width="3209.09" height="2736.363" style="fill:none;"/><g id="Background"><g><g><path d="M2416.187,1080.218c-0.464,0.081 -7.083,2.078 -16.599,2.898c-23.381,2.015 -22.9,4.143 -45.873,8.341c-24.718,4.516 -19.959,-11.4 -20.376,-36.858c-1.329,-81.181 -8.717,-168.555 -9.962,-177.074c-9.217,-63.083 -3.162,-70.329 -24.117,-82.775c-41.022,-24.366 -148.379,-64.169 -161.558,-69.055c-26.303,-9.752 -26.423,-8.87 -52.766,-18.45c-34.376,-12.501 -34.621,-11.461 -69.124,-23.564c-33.168,-11.635 -41.858,-12.33 -62.883,-19.229c-55.2,-18.113 -55.591,-16.204 -129.493,-35.34c-17.219,-4.459 -206.781,-53.544 -215.67,-54.017c-9.123,-0.486 -111.041,26.425 -138.921,33.195c-77.176,18.74 -76.832,19.69 -153.38,40.748c-31.636,8.703 -31.281,9.493 -62.844,18.362c-71.23,20.014 -70.63,21.869 -76.824,23.593c-63.752,17.739 -208.385,75.079 -239.656,91.081c-28.948,14.813 -39.266,14.075 -43.603,41.694c-13.34,84.955 -16.333,162.714 -16.88,176.922c-6.324,164.252 5.072,208.556 3.503,231.237c-2.176,31.453 -68.603,112.012 -1.422,158.876c20.839,14.537 28.272,11.126 35.676,48.902c13.108,66.876 16.285,66.043 22.678,92.533c12.435,51.523 55.185,156.563 60.626,169.932c33.571,82.484 65.244,122.656 68.765,138.201c3.217,14.205 -33.712,54.941 -49.642,92.453c-0.568,1.337 -6.226,14.66 -14.419,11.031c-1.87,-0.828 -31.117,-50.79 -31.405,-51.218c-5.546,-8.25 -5.527,-8.137 -5.981,-8.862c-1.566,-2.496 -41.95,-79.088 -47.525,-91.022c-29.632,-63.43 -27.715,-64.158 -30.46,-69.579c-6.566,-12.964 -6.433,-15.767 -21.745,-54.25c-10.511,-26.417 -14.715,-44.265 -20.428,-59.559c-10.124,-27.102 -14.204,-51.889 -22.728,-77.149c-4.124,-12.222 -23.265,-96.372 -28.251,-131.435c-10.159,-71.439 -29.755,-143.191 -29.521,-323.06c0.251,-193.346 26.127,-338.996 26.212,-339.327c3.197,-12.543 22.267,-21.763 24.695,-22.937c111.415,-53.864 112.657,-50.954 122.243,-55.82c16.558,-8.406 29.117,-11.139 48.076,-18.939c60.102,-24.728 102.812,-38.26 113.858,-42.421c86.9,-32.735 362.754,-103.945 401.343,-112.207c36.513,-7.818 80.315,-24.064 99.801,-24.775c18.682,-0.682 351.421,85.531 376.794,94.216c31.217,10.686 31.713,8.682 62.977,18.865c121.576,39.594 182.541,61.735 292,109.882c13.405,5.896 42.341,21.053 46.371,22.79c16.458,7.092 35.282,18.037 38.449,23.848c3.889,7.137 5.568,10.216 15.942,100.336c4.327,37.587 12.458,158.453 13.985,223.364c0.542,23.042 -7.511,20.336 -29.935,25.624Z" style="fill:#8264d2;"/><path d="M1667.473,2429.856c-54.331,26.852 -56.324,35.309 -84.593,20.98c-11.333,-5.745 -85.668,-43.426 -138.312,-78.072c-13.355,-8.789 -83.835,-53.315 -106.142,-71.749c-7.532,-6.225 -31.347,-24.444 -34.092,-26.545c-24.057,-18.406 -23.436,-18.909 -46.508,-38.531c-0.953,-0.81 -1.495,-0.106 -25.354,-21.694c-30.201,-27.327 -106.611,-104.612 -109.888,-112.871c-5.828,-14.69 7.598,-21.63 37.116,-47.53c5.414,-4.75 31.032,-26.179 45.231,-39.31c15.301,-14.15 105.344,-91.26 123.66,-107.53c11.361,-10.092 109.894,-94.87 119.463,-103.104c22.839,-19.651 22.994,-19.273 45.136,-39.645c6.906,-6.354 101.418,-88.201 107.563,-92.245c13.068,-8.6 31.767,-5.395 52.983,-3.711c2.205,0.175 24.172,1.92 27.103,5.478c6.036,7.325 -6.568,21.703 -26.758,73.775c-12.673,32.686 -17.024,30.143 -53.388,62.563c-5.184,4.622 -5.404,4.296 -65.492,56.994c-4.622,4.053 -4.928,3.573 -58.38,49.967c-61.841,53.675 -61.732,53.574 -123.239,107.691c-66.916,58.875 -82.337,66.282 -81.421,76.152c0.546,5.882 15.526,19.633 65.298,62.682c24.131,20.872 99.509,77.396 123.873,91.445c6.953,4.009 6.182,5.257 85.895,51.833c17.761,10.377 18.168,9.33 35.957,19.858c28.01,16.577 39.826,1.394 71.556,-15.092c9.579,-4.977 49.593,-25.767 114.87,-70.797c26.769,-18.466 119.837,-80.559 225.315,-198.581c124.083,-138.84 202.717,-294.994 236.371,-387.108c11.325,-30.998 11.96,-30.584 22.038,-61.927c2.285,-7.106 7.535,-18.044 16.625,-53.547c7.264,-28.374 11.252,-42.46 15.798,-44.351c7.936,-3.302 7.751,0.175 13.854,6.262c24.904,24.839 51.144,55.248 55.42,60.205c22.102,25.614 14.879,29.578 4.152,61.558c-24.867,74.136 -39.472,122.833 -106.52,246.505c-30.173,55.654 -94.14,155.573 -177.686,245.23c-125.963,135.178 -228.841,212.501 -407.507,314.761Z" style="fill:#5940ad;"/><path d="M725.202,870.165c-3.918,53.04 -5.572,53.531 -7.031,76.9c-0.193,3.083 -2.356,73.187 -3.66,92.129c-3.231,46.932 -52.79,142.657 -48.913,346.372c3.098,162.77 48.441,280.613 63.4,323.634c20.576,59.176 93.876,215.393 226.33,343.733c68.713,66.579 89.114,77.27 104.116,88.879c35.948,27.818 91.159,61.581 92.091,62.233c15.55,10.889 102.677,96.98 176.493,147c39.435,26.722 54.607,44.973 117.126,74.36c1.048,0.492 12.708,5.973 6.465,12.945c-6.561,7.326 -60.78,-12.787 -91.176,-18.806c-25.146,-4.979 -41.277,-10.99 -68.077,-19.757c-9.972,-3.262 -56.326,-18.425 -122.021,-48.076c-4.563,-2.059 -72.785,-36.555 -85.115,-44.553c-35.599,-23.093 -122.179,-70.582 -228.244,-178.965c-87.332,-89.241 -132.156,-162.959 -152.146,-194.974c-89.582,-143.47 -115.957,-261.144 -130.663,-308.471c-3.992,-12.846 -16.497,-78.387 -19.37,-100.915c-8.875,-69.6 -16.455,-113.904 -7.911,-261.281c2.854,-49.23 21.374,-146.862 27.44,-169.919c49.055,-186.458 99.56,-251.653 142.824,-328.645c10.755,-19.139 15.902,-15.159 17.314,-14.067c3.71,2.868 1.302,18.186 1.056,19.748c-4.966,31.585 -7.379,71.563 -10.327,100.496Z" style="fill:#6148b6;"/><path d="M2471.123,754.915l5.368,-2.388c2.119,0.425 3.78,-3.114 5.899,-2.688c0.167,0.033 28.973,47.654 31.483,51.803c40.151,66.375 76.663,148.07 83.786,169.151c36.212,107.16 44.348,155.074 46.695,168.895c4.555,26.827 31.911,127.976 17.354,315.158c-1.765,22.691 1.541,23.105 -20.431,139.054c-5.666,29.9 -10.44,40.915 -21.82,84.951c-7.581,29.334 -41.085,116.392 -52.056,136.739c-12.032,22.316 -9.003,25.593 -49.087,94.877c-66.391,114.754 -137.698,186.153 -163.747,214.579c-15.463,16.874 -103.877,105.658 -217.941,173.316c-46.053,27.317 -90.784,53.813 -191.878,92.138c-21.948,8.32 -63.436,21.21 -68.99,22.936c-8.239,2.56 -17.212,2.665 -83.351,20.543c-11.799,3.189 -41.055,14.087 -38.534,-1.419c1.23,-7.564 9.215,1.576 81.761,-49.924c82.439,-58.522 83.134,-57.526 159.756,-123.699c10.485,-9.055 10.94,-8.288 20.986,-17.825c48.506,-46.049 51.37,-42.384 74.49,-57.339c5.641,-3.649 63.503,-43.964 84.645,-61.041c254.136,-205.288 319.059,-455.114 328.093,-481.95c12.893,-38.299 9.823,-38.98 20.209,-78.052c5.674,-21.347 22.118,-126.09 19.649,-223.232c-0.268,-10.528 -1.15,-45.231 -10.74,-131.207c-1.05,-9.415 -18.631,-95.765 -24.913,-115.153c-15.735,-48.565 -13.379,-49.135 -15.865,-100.113c-2.208,-45.268 -1.294,-46.009 -3.874,-69.517c-2.583,-23.54 -4.96,-49.155 -5.357,-53.432c-4.716,-71.22 -8.813,-81.341 -11.591,-115.161Z" style="fill:#664bba;"/><path d="M1377.57,2115.561c-7.614,-6.562 -7.577,-6.507 -8.223,-7.087c-22.842,-20.506 -6.438,-25.661 23.697,-51.701c30.255,-26.144 164.285,-139.341 177.726,-153.506c1.147,-1.209 13.936,-14.687 14.604,-14.862c4.117,-1.08 11.096,5.028 11.073,5.529c-0.011,0.227 -3.029,9.318 -5.311,14.824c-18.659,45.031 -13.938,46.581 -30.559,92.39c-1.091,3.006 -31.183,112.038 -31.743,115.767c-1.905,12.695 7.702,12.315 8.914,12.267c6.508,-0.258 115.137,-99.248 123.177,-105.074c8.12,-5.884 7.948,-6.119 185.876,-168.03c65.52,-59.622 236.445,-216.045 237.522,-216.833c10.325,-7.553 67.484,-60.966 80.659,-73.591c11.487,-11.008 10.774,-11.501 21.963,-22.824c7.034,-7.118 8.301,-12.966 14.809,-5.484c6.445,7.41 1.384,8.243 -2.326,17.412c-35.093,86.723 -43.58,119.128 -58.496,147.702c-23.039,44.135 -74.322,179.047 -242.612,351.276c-77.061,78.864 -198.601,160.346 -223.87,174.929c-64.801,37.395 -65.599,37.948 -75.175,35.904c-18.509,-3.951 -160.317,-93.714 -221.706,-149.008Z" style="fill:#b29df5;"/><path d="M1540.3,1417.267c0.888,1.897 -1.469,4.359 -0.581,6.256c1.347,2.878 11.569,3.27 12.611,3.31c31.588,1.211 31.482,0.706 63.056,2.493c73.418,4.156 112.998,23.539 161.669,40.075c20.891,7.098 55.614,25.92 62.221,30.376c22.507,15.177 41.204,19.928 62.586,54.071c33.119,52.886 14.383,95.587 7.769,117.154c-6.785,17.078 -7.787,22.638 -16.598,38.322c-1.088,1.937 -8.59,15.29 -14.35,23.784c-45.455,67.038 -101.292,116.295 -181.171,196.793c-42.201,42.528 -45.627,39.041 -84.784,84.456c-18.145,21.045 -20.749,4.032 -20.361,2.439c0.529,-2.172 11.511,-22.679 14.745,-30.884c1.716,-4.354 13.666,-34.668 20.731,-54.703c3.431,-9.73 38.034,-107.85 42.539,-121.751c34.565,-106.653 45.149,-117.065 79.088,-152.657c3.664,-3.843 4.437,-4.004 3.106,-9.071c-3.965,-15.088 -82.292,-12.317 -191.159,-25.43c-92.304,-11.117 -127.245,-17.202 -177.811,-66.932c11.743,-13.952 13.018,-13.697 13.792,-23.464c0.774,-9.772 0.56,-9.716 1.478,-15.55c6.084,-38.685 19.035,-46.542 21.549,-48.947c28.548,-27.315 41.007,-32.393 64.215,-41.312c41.702,-16.026 41.701,-17.117 45.338,-15.877c3.943,1.345 6.379,5.703 10.323,7.048Z" style="fill:#8469d1;"/><path d="M2093.939,906.404c16.419,5.205 15.848,6.292 30.678,14.827c9.052,5.21 9.538,3.7 21.668,6.443c-1.019,4.492 -4.333,8.248 -5.351,12.74c-0.259,1.14 1.301,0.951 2.282,14.43c0.497,6.827 -1.38,13.756 -3.746,32.148c-11.831,14.125 -11.927,14.041 -12.864,15.642c-18.78,32.087 -15.395,33.493 -15.756,34.865c-13.912,25.685 -14.24,25.405 -17.267,33.027c-4.707,11.853 -20.559,46.734 -23.141,53.84c-23.882,65.725 -37.401,83.093 -43.726,93.927c-8.724,14.944 -9.464,14.279 -18.623,29.033c-6.306,10.157 -36.448,45.288 -46.739,53.48c-26.2,20.857 -27.892,27.122 -54.913,18.75c-105.527,-32.698 -136.998,-61.364 -151.664,-74.035c-19.704,-17.024 -27.51,1.092 -43.321,21.394c-5.654,7.259 -36.137,39.394 -43.06,48.962c-33.299,46.026 -31.046,63.063 -34.56,78.332c-4.905,21.309 -17.132,12.873 -49.637,13.725c-37.989,0.996 -42.417,8.654 -43.9,9.332c-3.943,-1.345 -6.379,-5.703 -10.323,-7.048c-3.637,-1.241 -3.636,-0.15 -45.338,15.877c-23.207,8.919 -35.667,13.997 -64.215,41.312c-2.514,2.405 -15.465,10.262 -21.549,48.947c-0.918,5.834 -0.704,5.778 -1.478,15.55c-0.774,9.767 -2.049,9.512 -13.792,23.464c-63.833,-70.955 -28.588,-146.57 -8.589,-170.995c58.48,-71.419 156.67,-89.282 230.413,-154.938c113.737,-101.263 97.37,-211.901 102.765,-220.519c4.948,-7.905 7.044,-6.204 15.24,-1.885c10.758,5.669 10.581,5.793 21.833,10.636c48.345,20.808 55.386,46.978 69.621,75.581c15.885,31.919 54.525,12.97 78.818,68.397c6.994,15.959 7.775,29.118 8.352,30.229c0.515,0.989 10.937,2.139 12.937,0.95c0.61,-0.363 7.247,-13.927 7.847,-15.154c9.164,-18.731 72.166,-82.675 73.173,-84.599c1.244,-2.377 1.102,-5.321 2.346,-7.698l1.572,-7.882c8.015,-1.865 16.029,-3.729 24.044,-5.594c9.723,-5.549 1.142,-5.597 19.361,-25.956c16.236,-0.735 10.047,4.342 11.288,3.692c4.874,-2.551 -8.373,-19.839 -7.872,-20.915c3.803,-8.166 3.886,-12.267 6.781,-20.888c13.429,-39.987 13.898,-70.919 10.94,-87.611c-2.636,-14.872 24.371,-2.916 24.417,-4.194c0.132,-3.619 4.911,-6.004 5.044,-9.623Z" style="fill:#a289e6;"/><path d="M1949.821,1663.79c0.35,-1.06 5.053,-11.179 6.525,-23.838c1.925,-16.563 1.769,-21.604 1.711,-23.487c-0.75,-24.349 0.096,-24.545 -8.168,-47.379c-16.618,-45.911 -26.939,-46.368 -17.963,-59.294c6.431,-9.262 199.514,-189.328 216.595,-207.003c15.182,-15.711 3.301,-20.838 -35.333,-61.381c-16.027,-16.819 -26.04,-25.1 -21.194,-33.108c1.954,-3.229 14.708,-5.681 16.053,-5.939c23.551,-4.527 45.865,-11.651 69.009,-16.602c37.03,-7.922 36.86,-8.155 76.6,-17.297c113.794,-26.179 113.601,-26.76 123.595,-28.518c45.304,-7.969 68.092,-20.783 70.885,-9.221c1.467,6.071 -0.168,6.033 -6.036,24.909c-3.16,10.164 -7.431,33.241 -16.039,61.501c-10.332,33.919 -7.632,34.55 -18.009,68.422c-13.452,43.912 -13.357,56.895 -21.864,85.084c-21.423,70.989 -19.57,74.135 -28.467,101.485c-3.758,11.553 -8.16,11.923 -17.298,3.848c-5.237,-4.628 -35.198,-35.352 -38.226,-38.458c-29.735,-30.493 -34.027,-40.337 -50.981,-24.17c-59.218,56.467 -210.769,192.615 -275.711,255.607c-14.833,14.388 -14.167,14.793 -22.284,23.656c-6.947,7.585 -10.822,10.36 -14.853,0.881c-0.673,-1.583 -0.189,-1.69 11.454,-29.697Z" style="fill:#b299f1;"/><path d="M1324.156,964.235c15.515,-17.83 63.45,-62.828 121.55,-62.563c35.328,0.161 89.016,17.434 123.424,52.522c2.548,2.599 4.978,5.311 7.507,7.929c1.144,1.184 13.018,13.475 15.661,13.349c3.641,-0.173 15.003,-7.236 -19.257,-41.288c-11.692,-11.621 -24.726,-18.783 -25.44,-19.591c-1.653,-1.87 -2.398,-4.379 -3.677,-6.522c-0.871,-1.46 -3.287,-2.665 -2.769,-4.284c2.415,-7.552 25.478,5.598 56.728,-27.878c32.47,-34.782 24.747,-77.153 27.366,-90.27c5.692,-28.503 13.629,-45 34.301,-63.96c12.504,-11.468 52.241,-36.338 101.448,-20.172c157.455,51.73 45.409,252.245 8.544,269.382c-38.363,17.834 -54.081,-36.196 -71.521,-1.927c-29.3,57.572 -3.445,66.516 -41.115,141.042c-12.805,25.334 -12.671,25.396 -30.851,47.253c-7.112,-3.168 -3.976,-7.117 -10.994,-10.243c-0.426,-0.19 -0.641,-0.285 -4.898,3.165c-2.902,2.352 -4.589,7.086 -8.298,7.53c-3.739,0.449 -6.217,-4.89 -9.956,-5.341c0,0 -21.481,2.993 -23.349,3.253c-2.516,-0.422 -5.124,-0.021 -7.64,-0.443c-8.168,-1.369 -35.975,-6.032 -67.997,-78.068c-26.122,-58.765 -50.052,-59.045 -124.251,-69.43c-22.203,-2.207 -25.061,-2.08 -31.198,-1.689c-14.316,0.911 -14.551,-0.732 -15.52,0.045c-2.095,1.679 0.806,6.196 -1.215,7.963c-1.542,1.347 -4.344,-3.105 -5.885,-1.758l-7.698,-3.892l-9.5,-10.464c2.608,-3.115 17.282,-22.71 26.5,-33.649Z" style="fill:#9b78e5;"/><path d="M1306.191,950.278c-0.222,1.46 1.06,2.89 0.837,4.35c-1.034,6.789 -20.366,30.426 -21.371,37.985c-0.107,0.805 -1.096,8.246 6.105,8.114c2.181,-0.04 3.713,-2.803 5.893,-2.842l9.5,10.464l7.698,3.892c1.542,-1.347 4.344,3.105 5.885,1.758c2.022,-1.767 -0.88,-6.284 1.215,-7.963c0.969,-0.776 1.205,0.866 15.52,-0.045c6.138,-0.39 8.995,-0.518 31.198,1.689c74.199,10.385 98.129,10.665 124.251,69.43c32.021,72.037 59.829,76.699 67.997,78.068c2.516,0.422 5.124,0.021 7.64,0.443c1.497,2.741 0.545,3.016 2.087,5.837c3.307,6.054 10.713,4.322 6.33,9.57c-3.232,3.871 -10.065,0.657 -15.101,0.933c-7.677,0.42 -20.114,0.817 -38.96,-3.13c-42.159,-8.829 -46.268,-23.093 -54.151,-23.441c-11.593,-0.512 -7.629,5.315 -7.401,16.978c0.562,28.692 -8.395,66.545 -8.887,77.12c-0.441,9.492 -0.5,12.162 9.065,12.557c2.77,0.114 4.652,-3.092 7.23,-4.11c2.42,-0.956 5.148,-0.903 7.609,-1.751c18.701,-6.443 18.952,-8.456 23.214,-6.002c4.002,2.304 5.63,7.652 9.631,9.956c-45.237,27.445 -70.46,37.039 -96.905,62.351c-10.487,10.038 -15.315,17.293 -21.144,3.907c-2.288,-5.254 8.723,-8.919 16.42,-38.493c10.951,-42.077 11.15,-57.318 -3.249,-114.825c-10.659,-42.571 -24.83,-52.115 11.918,-76.247c1.119,-0.735 13.857,-9.099 13.949,-9.239c0.806,-1.217 10.938,-22.391 -15.822,-9.1c-82.47,40.96 -104.208,29.021 -145.762,31.716c-22.531,1.462 -13.953,25.418 -63.205,91.712c-47.228,63.57 -54.607,84.035 -39.498,110.45c15.68,27.413 12.04,51.646 25.837,51.859c10.579,0.164 7.544,-5.098 25.553,-44.436c9.542,-20.844 16.715,-45.457 44.929,-34.728c19.173,7.291 16.855,23.814 16.51,26.272c-3.091,22.024 -21.949,40.619 -72.059,184.167c-15.572,44.609 -58.43,17.192 -54.561,-7.769c0.904,-5.833 20.463,-57.169 22.343,-62.103c6.124,-16.074 -0.983,-29.57 -29.299,-15.198c-22.615,11.478 -24.997,11.134 -54.614,-5.139c-15.608,-8.575 -34.065,-14.085 -39.568,-32.199c-4.002,-13.174 -1.487,-15.808 -13.941,-21.86c-14.439,-7.016 -20.495,4.897 -21.302,6.485c-17.428,34.283 -20.843,80.612 -55.572,70.421c-34.127,-10.015 -16.897,-44.479 -15.094,-48.085c10.925,-21.853 9.805,-22.197 18.976,-44.723c1.791,-4.4 8.562,-17.141 13.682,-31.456c7.032,-19.658 19.158,-45.845 23.653,-61.255c4.373,-14.989 14.79,-40.518 21.389,-46.652c10.085,-9.373 51.759,-5.537 42.947,29.512c-7.246,28.825 -26.791,60.772 -24.275,68.807c1.012,3.232 18.435,27.631 36.465,-5.534c21.164,-38.931 14.417,-41.36 34.57,-116.976c2.154,-8.081 5.51,-32.137 26.882,-83.381c31.746,-76.114 62.864,-81.358 73.846,-87.955c23.522,-14.13 23.935,-13.125 78.321,-36.755c7.638,-3.319 7.547,-3.298 8.244,-3.46c3.227,-0.752 3.195,0.793 6.398,0.046Z" style="fill:#553e9a;"/><path d="M953.353,601.202c-42.576,16.926 -44.204,17.762 -47.887,19.655c-3.947,2.028 -66.415,26.581 -84.259,39.212c-2.25,1.592 -22.731,17.701 -28.138,8.831c-1.138,-1.868 -1.426,-4.526 -0.567,-6.538c1.365,-3.197 4.357,-5.43 6.752,-7.949c5.492,-5.777 6.153,-4.879 11.798,-10.383c23.029,-22.452 20.094,-25.02 63.958,-67.838c48.367,-47.214 91.015,-79.62 99.386,-85.981c63.226,-48.042 137.285,-87.722 149.769,-94.411c64.395,-34.502 171.851,-74.709 252.92,-92.464c4.535,-0.993 87.548,-15.069 92.088,-15.533c14.287,-1.46 62.83,-7.082 76.781,-7.747c128.439,-6.128 201.094,9.066 238.045,15.142c96.254,15.827 104.858,23.333 176.679,46.105c24.504,7.769 23.438,10.236 47.526,18.988c27.629,10.038 26.553,12.271 53.654,23.837c0.191,0.081 42.392,21.666 54.792,29.657c10.202,6.574 32.55,18.575 35.235,20.326c63.062,41.134 127.944,82.374 219.243,180.064c41.479,44.382 44.458,42.476 45.184,47.68c0.14,1.001 1.36,9.74 -8.4,9.432c-3.086,-0.097 -36.463,-25.139 -131.613,-60.623c-0.249,-3.479 2.399,-6.761 2.15,-10.239c-0.317,-4.421 -21.169,-15.824 -23.184,-16.925c-30.762,-16.821 -75.318,-56.913 -102.035,-74.279c-14.53,-9.445 -108.343,-70.426 -192.205,-99.921c-48.627,-17.102 -48.542,-17.266 -52.821,-18.592c-88.569,-27.461 -118.626,-30.256 -184.769,-40.171c-104.075,-15.602 -220.556,-4.037 -254.906,2.304c-49.811,9.196 -50.312,5.938 -99.212,18.714c-178.389,46.605 -244.201,96.59 -300.033,130.177c-49.543,29.804 -55.562,42.457 -83.683,62.375c-21.039,14.901 -22.281,12.844 -23.946,14.331c-1.223,1.093 -0.899,3.563 -2.353,4.322c-2.225,1.163 -5.039,0.263 -7.487,0.821c-9.272,2.115 -9.094,8.117 -9.064,9.147c0.116,3.912 0.624,8.706 3.681,11.15c1.931,1.544 4.988,-4.219 6.919,-2.675Z" style="fill:#9373e1;"/><path d="M1050.215,1961.312c5.93,-11.96 51.639,-104.137 95.265,-136.998c54.296,-40.898 74.039,-41.993 105.729,-78.522c13.977,-16.111 19.194,-20.804 65.209,-136.383c9.031,-22.685 15.268,-49.696 17.29,-51.105c1.244,-0.867 3.027,0.246 4.543,0.211c4.065,-0.094 4.933,-1.034 7.725,3.774c14.976,25.786 47.055,48.094 61.219,54.292c36.497,15.97 36.11,17.074 76.43,25.714c27.628,5.92 27.7,5.981 29.564,7.556c10.106,8.538 -11.825,29.503 -21.346,43.594c-2.095,3.1 -47.264,58.998 -71.725,82.034c-41.512,39.093 -45.287,34.472 -165.609,135.021c-18.987,15.867 -19.109,15.553 -37.884,31.527c-110.599,94.101 -108.501,96.417 -118.175,104.523c-13.951,11.691 -16.913,6.223 -28.635,-7.719c-29.738,-35.37 -30.496,-40.919 -31.09,-45.273c-1.561,-11.433 10.836,-30.934 11.491,-32.246Z" style="fill:#684db5;"/><path d="M953.353,601.202c-1.931,-1.544 -4.988,4.219 -6.919,2.675c-3.057,-2.444 -3.565,-7.238 -3.681,-11.15c-0.03,-1.03 -0.208,-7.032 9.064,-9.147c2.448,-0.558 5.262,0.342 7.487,-0.821c1.454,-0.76 1.129,-3.229 2.353,-4.322c1.665,-1.488 2.907,0.57 23.946,-14.331c28.121,-19.918 34.14,-32.571 83.683,-62.375c55.832,-33.587 121.644,-83.572 300.033,-130.177c48.901,-12.776 49.402,-9.518 99.212,-18.714c34.35,-6.341 150.831,-17.906 254.906,-2.304c66.143,9.915 96.2,12.71 184.769,40.171c4.279,1.327 4.195,1.49 52.821,18.592c83.861,29.494 177.675,90.476 192.205,99.921c26.717,17.367 71.272,57.458 102.035,74.279c2.015,1.102 22.868,12.504 23.184,16.925c0.249,3.479 -2.399,6.761 -2.15,10.239c-56.203,-22.425 -54.64,-26.002 -92.379,-38.732c-31.207,-10.526 -30.467,-12.153 -61.942,-21.789c-53.999,-16.532 -83.08,-41.787 -130.843,-62.531c-89.976,-39.079 -201.169,-78.743 -345.194,-82.4c-155.649,-3.953 -186.961,11.633 -223.575,16.283c-46.792,5.943 -127.882,35.347 -138.725,39.278c-9.607,3.483 -74.145,26.886 -116.437,52.521c-71.287,43.21 -77.319,30.746 -213.852,87.908Z" style="fill:#4e36a2;"/><path d="M1961.007,859.548l8.146,11.264c1.303,0.362 16.287,4.52 16.287,4.52c1.295,0.545 0.427,1.843 14.501,9.907c7.644,4.38 15.188,13.867 16.037,14.842c17.698,20.337 35.931,76.522 12.962,123.514c-1.17,2.394 -11.406,23.335 -12.219,30.989c-0.425,3.999 0.885,7.124 1.126,7.698c2.224,5.305 3.882,4.246 6.133,9.617c-8.015,1.865 -16.029,3.729 -24.044,5.594c-3.599,0.455 -29.964,3.791 -45.297,-2.207c-58.991,-23.076 -71.647,-99.346 -62.826,-136.263c14.54,-60.856 41.323,-69.743 69.194,-79.474Z" style="fill:#352758;"/><path d="M2184.295,840.643l-7.306,9.61c-1.86,3.268 -8.613,0.925 -10.473,4.193c-3.643,6.399 43.904,11.456 55.395,85.207c6.767,43.435 -8.351,72.666 -19.992,92.812c-1.292,2.237 -1.429,5.83 -3.853,6.724c-2.04,0.753 -4.293,-4.879 -5.682,-3.206c-2.327,2.802 -2.084,7.53 -0.711,10.903c3.11,7.643 8.552,10.388 9.589,10.911c3.706,1.869 3.008,-4.556 6.795,-2.646c-15.272,5.241 -14.947,6.225 -30.948,8.151c-11.944,1.438 -21.475,0.189 -23.326,-0.053c-36.396,-4.768 -42.574,-25.288 -42.934,-25.75c0.36,-1.372 -3.024,-2.777 15.756,-34.865c0.937,-1.601 1.033,-1.517 12.864,-15.642c13.87,-7.595 13.791,-7.529 14.98,-8.202c8.688,-4.922 20.721,-19.67 8.554,-40.645c-4.345,-7.49 -6.022,-5.597 -16.719,-10.471c-12.129,-2.743 -12.616,-1.233 -21.668,-6.443c-14.83,-8.536 -14.259,-9.623 -30.678,-14.827c-1.227,-1.141 -11.867,-5.233 -6.645,-20.111c1.959,-5.582 7.509,-12.823 8.294,-13.848c30.089,-39.259 78.218,-32.489 88.707,-31.803Z" style="fill:#382a5d;"/><path d="M1568.562,1155.621c1.868,-0.26 23.349,-3.253 23.349,-3.253c3.739,0.451 6.217,5.789 9.956,5.341c3.709,-0.445 5.396,-5.179 8.298,-7.53c4.257,-3.45 4.472,-3.354 4.898,-3.165c7.018,3.126 3.881,7.075 10.994,10.243c-13.714,15.142 -31.854,42.571 -101.732,84.841c-7.35,4.446 -7.283,4.239 -15.095,8.04c-4.002,-2.304 -5.63,-7.652 -9.631,-9.956c-4.262,-2.454 -4.513,-0.441 -23.214,6.002c-2.461,0.848 -5.188,0.795 -7.609,1.751c-2.579,1.019 -4.46,4.225 -7.23,4.11c-9.565,-0.394 -9.506,-3.064 -9.065,-12.557c0.492,-10.575 9.448,-48.428 8.887,-77.12c-0.228,-11.663 -4.192,-17.49 7.401,-16.978c7.884,0.348 11.993,14.612 54.151,23.441c18.846,3.947 31.283,3.55 38.96,3.13c5.036,-0.276 11.868,2.938 15.101,-0.933c4.382,-5.248 -3.023,-3.516 -6.33,-9.57c-1.541,-2.821 -0.589,-3.096 -2.087,-5.837Z" style="fill:#7355c9;"/><path d="M1961.007,859.548c0.061,-0.01 23.125,-6.315 47.413,-1.024c30.829,6.716 50.356,35.464 53.539,41.837c40.045,80.164 5.883,129.226 -3.142,144.722c-18.219,20.358 -25.115,21.267 -34.838,26.815c-2.252,-5.371 -3.909,-4.312 -6.133,-9.617c-0.241,-0.574 -1.55,-3.698 -1.126,-7.698c0.813,-7.653 11.049,-28.594 12.219,-30.989c22.969,-46.992 4.736,-103.177 -12.962,-123.514c-0.849,-0.975 -8.393,-10.462 -16.037,-14.842c-14.074,-8.064 -13.206,-9.362 -14.501,-9.907c0,0 -14.984,-4.159 -16.287,-4.52l-8.146,-11.264Z" style="fill:#685184;"/><path d="M2184.295,840.643c16.528,5.175 16.622,4.724 31.428,13.452c40.107,23.643 70.117,120.355 18.806,180.417c-11.034,12.916 -11.839,12.022 -26.472,20.641c-3.787,-1.91 -3.09,4.515 -6.795,2.646c-1.038,-0.523 -6.479,-3.268 -9.589,-10.911c-1.373,-3.373 -1.616,-8.102 0.711,-10.903c1.39,-1.673 3.642,3.959 5.682,3.206c2.424,-0.894 2.56,-4.488 3.853,-6.724c11.64,-20.146 26.759,-49.377 19.992,-92.812c-11.491,-73.751 -59.038,-78.807 -55.395,-85.207c1.86,-3.268 8.613,-0.925 10.473,-4.193l7.306,-9.61Z" style="fill:#685685;"/><path d="M900.724,1309.22c28.145,-64.939 33.901,-91.7 44.856,-108.21c13.225,-19.932 45.351,-5.294 41.58,15.19c-3.709,20.148 -50.4,128.766 -51.028,129.89c-1.151,2.062 -10.541,18.881 -28.568,7.459c-20.52,-13.001 -11.421,-29.947 -6.84,-44.329Z" style="fill:#372952;"/><path d="M1278.591,1479.135c-0.473,0.598 -9.732,23.456 -33.155,14.555c-19.934,-7.575 -12.897,-27.825 -12.041,-30.288c3.792,-10.913 38.988,-99.905 46.472,-113.873c8.927,-16.66 17.517,-16.751 19.58,-16.773c6.526,-0.069 28.332,7.124 24.536,29.941c-2.186,13.142 -16.82,39.863 -38.682,100.268c-3.01,8.317 -3.339,8.045 -6.71,16.17Z" style="fill:#40325c;"/><path d="M1952.33,986.346c-0.636,-1.202 -1.888,-2.002 -2.524,-3.204c-16.871,-31.902 21.402,-62.52 40.991,-27.905c14.035,24.801 -14.265,55.235 -34.884,35.589c-1.384,-1.319 -2.199,-3.16 -3.583,-4.479Z" style="fill:#f9f8fc;"/><path d="M2146.284,927.675c10.696,4.873 12.374,2.981 16.719,10.471c12.167,20.975 0.134,35.724 -8.554,40.645c-1.189,0.673 -1.11,0.608 -14.98,8.202c2.366,-18.392 4.243,-25.321 3.746,-32.148c-0.981,-13.479 -2.541,-13.29 -2.282,-14.43c1.019,-4.492 4.333,-8.248 5.351,-12.74Z" style="fill:#a289e6;"/><path d="M1306.191,950.278c5.988,4.652 11.976,9.305 17.965,13.957c-9.217,10.939 -23.892,30.534 -26.5,33.649c-2.181,0.04 -3.713,2.803 -5.893,2.842c-7.2,0.132 -6.212,-7.309 -6.105,-8.114c1.004,-7.559 20.336,-31.196 21.371,-37.985c0.222,-1.46 -1.06,-2.89 -0.837,-4.35Z" style="fill:#dfccf1;"/><path d="M1418.978,1411.739c-7.369,-4.202 -8.765,-2.784 -12.64,-10.278c-1.33,-2.573 -1.474,-5.675 -2.927,-8.181c-0.881,-1.52 -3.99,-1.812 -3.883,-3.566c0.017,-0.283 13.194,-11.822 13.512,-11.829c10.958,-0.259 9.545,3.535 12.966,13.954c1.074,3.272 4.996,6.34 3.85,9.587c-1.664,4.711 -9.214,5.602 -10.877,10.313Z" style="fill:#856be4;"/><path d="M1977.809,2312.514c-3.045,1.129 -5.615,3.335 -8.661,4.463c-6.87,2.546 -7.281,2.073 -7.693,1.599c-3.489,-4.016 4.562,-5.203 1.022,-9.277l6.676,-2.213l8.656,5.428Z" style="fill:#5c40b4;"/><path d="M1656.253,1941.977c-0.832,0.987 -10.4,12.342 -10.4,12.342c-7.857,-0.02 -7.857,-6.008 -7.857,-6.841c-0,-1.525 1.037,-0.312 18.258,-5.501Z" style="fill:#614ab2;"/><path d="M1229.9,2309.976c4.266,-0.177 3.723,-2.014 7.978,-2.191c0.676,-0.028 6.715,-0.279 8.315,1.514c0.501,0.562 7.098,11.53 -7.652,5.475c-3.048,-1.251 -5.594,-3.546 -8.641,-4.798Z" style="fill:#5a41b1;"/><path d="M2047.701,1092.686c-0.954,-4.57 -6.28,3.245 -7.224,-1.277c-0.138,-0.66 -0.687,-3.292 5.652,-6.25c1.664,-0.776 5.023,-0.703 5.398,1.094c0.51,2.443 -4.336,3.991 -3.827,6.434Z" style="fill:#bd9ef1;"/></g></g></g></svg>